<svg width="16" height="16" viewBox="0 0 16 16" fill="none" xmlns="http://www.w3.org/2000/svg">
<circle cx="8" cy="8.00033" r="5.33333" stroke="#727277" stroke-width="1.2" stroke-dasharray="1.33 0.67"/>
<path d="M13.3333 8.00033C13.3333 9.05516 13.0205 10.0863 12.4345 10.9634C11.8485 11.8404 11.0155 12.524 10.041 12.9277C9.06644 13.3314 7.99408 13.437 6.95952 13.2312C5.92495 13.0254 4.97464 12.5174 4.22876 11.7716C3.48288 11.0257 2.97493 10.0754 2.76914 9.04081C2.56335 8.00624 2.66897 6.93389 3.07264 5.95935C3.47631 4.98481 4.15989 4.15186 5.03696 3.56582C5.91402 2.97979 6.94516 2.66699 8 2.66699" stroke="#727277" stroke-width="1.2" stroke-linecap="round"/>
<path d="M10 9.33301L8 7.99967V5.33301" stroke="#727277" stroke-width="1.2" stroke-linecap="round" stroke-linejoin="round"/>
</svg>
