<svg width="20" height="20" viewBox="0 0 20 20" fill="none" xmlns="http://www.w3.org/2000/svg">
<path d="M6.37491 4.17241C6.60098 4.17119 6.82673 4.18925 7.04976 4.2264C8.39432 4.46264 9.46664 5.99707 9.8548 6.62561C9.92476 6.7389 10.0965 6.73696 10.1613 6.62064C10.4017 6.18916 10.8706 5.37589 11.1059 5.15891C12.6997 3.71599 14.9488 3.87223 16.376 5.46512C17.1573 6.34353 17.559 7.49738 17.493 8.67303C17.3903 10.5478 16.2382 12.0752 14.9858 13.368C14.5289 13.8368 14.0561 14.2898 13.5682 14.7259C12.7816 15.4308 11.9711 16.1083 11.1381 16.7572C10.9548 16.9006 10.7716 17.0536 10.5856 17.1922C10.4603 17.2855 10.2095 17.4979 10.0545 17.5002C9.9793 17.5019 9.90505 17.4833 9.83959 17.4463C9.71942 17.3797 9.53187 17.2257 9.42027 17.1384C9.19524 16.9636 8.97162 16.7868 8.74943 16.6084C7.59999 15.6889 6.4622 14.7462 5.40182 13.7166C3.97476 12.331 2.5472 10.6433 2.50113 8.5436C2.47512 7.3587 2.90017 6.19486 3.72484 5.33986C4.41645 4.60969 5.37131 4.18904 6.37491 4.17241Z" fill="#8741F5"/>
</svg>
