<svg width="12" height="12" viewBox="0 0 12 12" fill="none" xmlns="http://www.w3.org/2000/svg">
<path d="M6.20089 10.9994L5.74064 11.0001C4.75995 10.9611 3.82491 10.603 3.11595 9.93471C2.58961 9.43863 2.24387 8.80263 2.0907 8.1034C1.82081 6.87064 2.17631 5.64846 2.8409 4.59109C2.9845 4.36267 3.12662 4.1493 3.30851 3.95277C3.39265 3.86194 3.50771 3.80783 3.6248 3.80962C3.74188 3.81141 3.86486 3.87215 3.94126 3.97301L4.14358 4.24013C4.27761 4.41713 4.50718 4.42627 4.67876 4.27632C4.94736 4.04181 5.15079 3.75158 5.31666 3.43376C5.66074 2.77483 5.77359 2.05015 5.65209 1.32207C5.63534 1.22157 5.67639 1.1182 5.74432 1.06248C5.94628 0.896762 6.24028 1.09401 6.48495 1.26725C7.22797 1.79325 7.81469 2.49929 8.17755 3.32483C8.49107 4.03804 8.60171 4.80679 8.51408 5.57429C8.51151 5.59632 8.51979 5.60797 8.52642 5.61316C8.53857 5.62248 8.56416 5.62266 8.58165 5.60743L9.09878 5.1617C9.19598 5.07785 9.32761 5.05169 9.46329 5.08914C9.56381 5.11691 9.65936 5.21347 9.70686 5.33458C9.86132 5.7289 9.93238 6.13629 9.97398 6.56178C10.0379 7.21605 9.98724 7.8619 9.7978 8.49037C9.54227 9.33813 8.97635 10.0402 8.1862 10.4723C7.57757 10.8052 6.90764 10.9813 6.20107 10.9994H6.20089Z" fill="#F53E27"/>
<path d="M8.17706 9.54714C7.79248 10.482 6.84842 11.0209 5.82612 10.9684C5.30825 10.9419 4.83015 10.7471 4.43691 10.4232C4.1812 10.2125 3.98716 9.95042 3.8489 9.65428C3.39271 8.67717 3.57625 7.5571 4.28853 6.75109C4.49288 6.5198 4.72337 6.34262 4.96491 6.15415C5.39441 5.81914 5.69817 5.37233 5.71879 4.82627C5.72137 4.75622 5.77089 4.68975 5.81802 4.66162C6.01832 4.54195 6.32724 4.82214 6.52404 5.00631C7.16746 5.60809 7.52664 6.49239 7.45429 7.36362C7.46257 7.3844 7.51964 7.36631 7.53916 7.35323L7.81494 7.1696C7.93644 7.08862 8.12478 7.13108 8.18424 7.28157C8.47235 8.0118 8.47677 8.81853 8.17706 9.54714Z" fill="#FD941B"/>
<path d="M7.1728 8.26529C7.55425 8.93031 7.55039 9.78792 7.00932 10.3273C6.46826 10.8668 5.55384 10.8988 4.96601 10.3924C4.51626 10.0049 4.33474 9.42155 4.48349 8.85542C4.60794 8.3821 4.90876 8.00856 5.31322 7.73033C5.55807 7.56193 5.70406 7.31309 5.7569 7.03217C5.77641 6.92862 5.90933 6.89082 5.99936 6.93292C6.12197 6.99025 6.20794 7.08216 6.29318 7.18481C6.54705 7.49045 6.67942 7.86452 6.66837 8.27281C6.75177 8.26117 6.79945 8.21262 6.86738 8.18198C6.97508 8.13325 7.1091 8.15439 7.1728 8.26547V8.26529Z" fill="#FDD43E"/>
</svg>
