<svg width="68" height="24" viewBox="0 0 68 24" fill="none" xmlns="http://www.w3.org/2000/svg">
<g clip-path="url(#clip0_2543_18611)">
<path d="M46.9759 8.03349C47.872 8.03349 48.5984 7.29837 48.5984 6.39155C48.5984 5.48474 47.872 4.74962 46.9759 4.74962C46.0799 4.74962 45.3535 5.48474 45.3535 6.39155C45.3535 7.29837 46.0799 8.03349 46.9759 8.03349Z" fill="#5500EB"/>
<path d="M48.1543 9.34711H45.7976V20.2102H48.1543V9.34711Z" fill="#5500EB"/>
<path d="M4.90769 9.09443C3.98862 9.09443 3.13579 9.38117 2.43135 9.87114V4.29443H0V20.2102H2.32652V13.6167C2.32652 12.3303 3.35715 11.2873 4.62825 11.2873C5.89935 11.2873 6.92998 12.3303 6.92998 13.6167V20.2102H9.2866V13.5256C9.2866 11.0783 7.32594 9.09443 4.90769 9.09443Z" fill="#5500EB"/>
<path d="M55.9126 9.09443C54.9606 9.09443 54.0798 9.40196 53.3612 9.92418V9.34712H51.0046V20.2102H53.3311V13.6167C53.3311 12.3303 54.3618 11.2873 55.6329 11.2873C56.904 11.2873 57.9346 12.3303 57.9346 13.6167V20.2102H60.2912V13.5256C60.2912 11.0783 58.3309 9.09443 55.9126 9.09443Z" fill="#5500EB"/>
<path d="M66.2327 18.0683C65.5159 18.0683 64.9347 17.4801 64.9347 16.7546V11.6718H67.8803V9.53958H64.9347V7.07399H62.6581V16.7751C62.6581 18.6726 64.1782 20.2109 66.0531 20.2109H68.0004V18.0686H66.2331L66.2327 18.0683Z" fill="#5500EB"/>
<path d="M37.8293 9.09444C34.7271 9.09444 32.2125 11.6392 32.2125 14.7787C32.2125 17.9181 34.7271 20.4629 37.8293 20.4629C40.9314 20.4629 43.446 17.9181 43.446 14.7787C43.446 11.6392 40.9314 9.09444 37.8293 9.09444ZM37.8293 18.1034C36.0149 18.1034 34.544 16.6149 34.544 14.7787C34.544 12.9425 36.0149 11.4539 37.8293 11.4539C39.6437 11.4539 41.1145 12.9425 41.1145 14.7787C41.1145 16.6149 39.6437 18.1034 37.8293 18.1034Z" fill="#5500EB"/>
<path d="M25.2379 9.09443C24.094 9.09443 23.0984 9.44067 22.2973 10.0349V9.34676H19.9707V23.9995H22.2973V19.522C23.0987 20.1163 24.094 20.4625 25.2379 20.4625C28.3401 20.4625 30.8546 17.9177 30.8546 14.7783C30.8546 11.6389 28.3401 9.09443 25.2379 9.09443ZM25.2379 18.1034C23.4235 18.1034 21.9527 16.6149 21.9527 14.7787C21.9527 12.9425 23.4235 11.4539 25.2379 11.4539C27.0523 11.4539 28.5232 12.9425 28.5232 14.7787C28.5232 16.6149 27.0523 18.1034 25.2379 18.1034Z" fill="#5500EB"/>
<path d="M12.5315 8.58925C14.8752 8.58925 16.7751 6.66648 16.7751 4.29462C16.7751 1.92277 14.8752 0 12.5315 0C10.1878 0 8.28784 1.92277 8.28784 4.29462C8.28784 6.66648 10.1878 8.58925 12.5315 8.58925Z" fill="#00F596"/>
</g>
<defs>
<clipPath id="clip0_2543_18611">
<rect width="68" height="24" fill="white"/>
</clipPath>
</defs>
</svg>
